<svg width="21.775px" height="20.762px" version="1.1" viewBox="0 0 21.775 20.762" xmlns="http://www.w3.org/2000/svg" xmlns:xlink="http://www.w3.org/1999/xlink">
<defs>
<radialGradient id="radialGradient836" cx="8.7106" cy="10.382" r="8.7106" gradientTransform="matrix(1 0 0 .95355 0 .48224)" gradientUnits="userSpaceOnUse">
<stop offset="0"/>
<stop stop-opacity="0" offset="1"/>
</radialGradient>
</defs>
<path d="m8.71 2.076c-0.182 0-0.363 0.14-0.501 0.419l-1.859 3.766c-0.276 0.56-1.008 1.091-1.624 1.18l-4.154 0.604c-0.618 0.09-0.757 0.519-0.31 0.955l3.007 2.931c0.446 0.437 0.726 1.295 0.62 1.909l-0.71 4.14c-0.077 0.446 0.094 0.708 0.404 0.708 0.118 0 0.255-0.038 0.407-0.117l3.717-1.956c0.276-0.145 0.641-0.216 1.003-0.216 0.364 0 0.729 0.072 1.004 0.216l3.718 1.956c0.149 0.079 0.289 0.117 0.406 0.117 0.312 0 0.481-0.262 0.405-0.708l-0.711-4.14c-0.104-0.614 0.174-1.474 0.619-1.909l3.009-2.931c0.446-0.437 0.307-0.865-0.311-0.955l-4.154-0.604c-0.617-0.089-1.349-0.62-1.624-1.18l-1.858-3.766c-0.139-0.279-0.32-0.419-0.503-0.419z" fill="#4d4d4d" stroke="url(#radialGradient836)"/>
</svg>
