<svg width="21.775px" height="20.762px" version="1.1" viewBox="0 0 21.775 20.762" xmlns="http://www.w3.org/2000/svg" xmlns:xlink="http://www.w3.org/1999/xlink">
<defs>
<radialGradient id="radialGradient844" cx="8.711" cy="10.382" r="9.2025" gradientTransform="matrix(1 0 0 .95686 0 .4479)" gradientUnits="userSpaceOnUse">
<stop offset="0"/>
<stop stop-opacity="0" offset="1"/>
</radialGradient>
</defs>
<path d="m17.161 9c0.397-0.388 0.308-0.758-0.148-0.9-8e-3 -3e-3 -0.012-0.011-0.02-0.014-0.068-0.03-0.174-0.07-0.328-0.092l-4.053-0.589c-0.279-0.04-0.589-0.184-0.86-0.379-0.142-0.104-0.272-0.221-0.386-0.345-0.105-0.117-0.194-0.241-0.255-0.365l-1.813-3.676c-0.02-0.04-0.044-0.07-0.066-0.107l-0.019-0.038c-9e-3 -0.018-0.021-0.023-0.03-0.04-0.012-0.015-0.023-0.032-0.035-0.046-0.129-0.208-0.28-0.333-0.438-0.333-0.15 0-0.294 0.119-0.419 0.309-0.01 0.011-0.018 0.025-0.027 0.036-0.017 0.029-0.039 0.041-0.055 0.074l-0.026 0.052c-0.02 0.033-0.041 0.053-0.06 0.093l-1.814 3.674c-0.062 0.126-0.152 0.252-0.259 0.371-0.112 0.121-0.239 0.236-0.376 0.336-0.274 0.199-0.586 0.344-0.867 0.385l-4.054 0.588c-0.055 8e-3 -0.119 0.033-0.18 0.051h-1e-3c-0.05 0.015-0.095 0.025-0.142 0.048-0.475 0.138-0.572 0.513-0.168 0.907l3.007 2.931c0.431 0.422 0.699 1.233 0.622 1.842l-0.687 4.005c-4e-3 0.025 0 0.045-2e-3 0.068l-0.022 0.133c-0.077 0.446 0.094 0.708 0.404 0.708 0.118 0 0.255-0.038 0.407-0.117l3.717-1.955c0.276-0.145 0.641-0.216 1.003-0.216 0.364 0 0.729 0.072 1.004 0.216l3.718 1.955c0.149 0.079 0.289 0.117 0.406 0.117 0.312 0 0.481-0.262 0.405-0.708l-0.03-0.174c-1e-3 -0.012 2e-3 -0.019 0-0.03l-0.682-3.962c-0.093-0.612 0.181-1.452 0.62-1.882zm-4.448 5.051 0.602 3.508-3.145-1.656c-0.404-0.213-0.922-0.331-1.46-0.331-0.535 0-1.052 0.118-1.458 0.331l-3.148 1.645 0.599-3.497c0.16-0.925-0.228-2.119-0.901-2.775l-2.54-2.483 3.513-0.509c0.929-0.135 1.944-0.872 2.36-1.716l1.565-3.214 1.584 3.212c0.416 0.844 1.431 1.581 2.361 1.714l3.514 0.519-2.546 2.479c-0.67 0.657-1.057 1.848-0.9 2.773z" fill="#666" stroke="url(#radialGradient844)"/>
</svg>
